<svg width="22" height="18" viewBox="0 0 22 18" fill="none" xmlns="http://www.w3.org/2000/svg">
<path d="M19.4907 3.18445C19.4907 3.18445 20.9907 4.92301 20.9907 8.97967C20.9907 13.0363 19.4907 14.7749 19.4907 14.7749" stroke="#253053" stroke-linecap="round"/>
<path d="M17.4907 6.08203C17.4907 6.08203 17.9907 6.95131 17.9907 8.97964C17.9907 11.008 17.4907 11.8773 17.4907 11.8773" stroke="#253053" stroke-linecap="round"/>
<path d="M1.44935 5.67327C1.73554 5.16024 2.28311 4.66261 2.83069 4.41791C3.43002 4.15009 4.11698 4.15009 5.4909 4.15009C6.00297 4.15009 6.259 4.15009 6.50701 4.10964C6.75219 4.06965 6.99128 4.00037 7.21876 3.9034C7.44887 3.80532 7.66262 3.66919 8.09013 3.39694L8.30907 3.25751C10.852 1.63805 12.1235 0.828312 13.1908 1.18012C13.3955 1.24757 13.5936 1.34494 13.7705 1.46502C14.6932 2.09134 14.7633 3.54855 14.9035 6.46298C14.9554 7.54214 14.9908 8.46571 14.9908 8.97946C14.9908 9.4932 14.9554 10.4168 14.9035 11.4959C14.7633 14.4104 14.6932 15.8676 13.7705 16.4938C13.5936 16.614 13.3955 16.7113 13.1908 16.7788C12.1235 17.1305 10.852 16.3208 8.30906 14.7014L8.09013 14.562C7.66262 14.2897 7.44887 14.1535 7.21876 14.0555C6.99128 13.9585 6.75219 13.8893 6.50701 13.8493C6.259 13.8088 6.00297 13.8088 5.4909 13.8088C4.11698 13.8088 3.43002 13.8088 2.83069 13.541C2.28311 13.2963 1.73554 12.7986 1.44935 12.2856C1.13612 11.7241 1.09928 11.1403 1.0256 9.97276C1.01468 9.79967 1.00597 9.62891 1 9.46239" stroke="#253053" stroke-linecap="round"/>
</svg>
